<?xml version="1.0" standalone="no"?>
<!DOCTYPE svg PUBLIC "-//W3C//DTD SVG 20010904//EN"
 "http://www.w3.org/TR/2001/REC-SVG-20010904/DTD/svg10.dtd">
<svg version="1.0" xmlns="http://www.w3.org/2000/svg"
 width="320.000000pt" height="320.000000pt" viewBox="0 0 320.000000 320.000000"
 preserveAspectRatio="xMidYMid meet">
<metadata>
Created by potrace 1.11, written by Peter Selinger 2001-2013
</metadata>
<g transform="translate(0.000000,320.000000) scale(0.100000,-0.100000)"
fill="#000000" stroke="none">
<path d="M1428 3195 c-1 -1 -22 -5 -45 -8 -90 -13 -219 -66 -323 -135 -30 -19
-212 -191 -404 -382 l-348 -346 -39 19 c-61 30 -98 18 -173 -56 -89 -87 -106
-122 -86 -182 10 -32 377 -406 422 -431 57 -32 107 -13 188 73 87 92 98 128
60 191 -11 18 -18 38 -14 43 15 25 117 80 158 85 75 11 100 -5 269 -175 l157
-158 -510 -512 c-583 -583 -564 -560 -565 -711 0 -71 5 -94 27 -140 62 -131
183 -203 329 -196 131 6 126 2 693 568 l509 508 517 -517 c371 -370 531 -524
566 -542 71 -37 171 -36 236 2 85 49 129 134 122 231 -8 104 -11 107 -564 661
l-519 520 153 153 154 154 55 -7 c178 -22 320 11 462 107 66 45 92 70 147 138
130 160 179 435 89 499 -50 36 -66 26 -216 -120 -77 -75 -151 -140 -165 -144
-86 -27 -191 2 -280 77 -34 28 -91 113 -101 152 -35 128 -23 155 136 316 76
77 136 146 140 162 9 34 -16 71 -62 93 -86 41 -318 -18 -441 -111 -138 -106
-238 -274 -259 -436 -8 -67 -8 -77 0 -167 l7 -73 -153 -154 -153 -153 -162
162 c-159 159 -163 164 -171 216 -20 125 7 261 65 340 63 83 193 182 268 202
63 17 70 18 169 20 100 2 142 12 151 36 16 41 -54 79 -209 114 -46 10 -278 22
-287 14z m-838 -2588 c76 -61 65 -178 -22 -223 -78 -41 -188 28 -188 118 0 31
30 88 57 105 50 33 112 33 153 0z"/>
</g>
</svg>
